Coordinates
version=1
nRows=12
nColumns=24
inDegrees=yes

Units are S.I. units (second, meters, Newtons, ...)
Angles are in degrees.

endheader
time	pelvis_tilt	pelvis_list	pelvis_rotation	pelvis_tx	pelvis_ty	pelvis_tz	hip_flexion_r	hip_adduction_r	hip_rotation_r	knee_angle_r	ankle_angle_r	subtalar_angle_r	mtp_angle_r	hip_flexion_l	hip_adduction_l	hip_rotation_l	knee_angle_l	ankle_angle_l	subtalar_angle_l	mtp_angle_l	lumbar_extension	lumbar_bending	lumbar_rotation
      0.44200000	     -0.34738998	      3.68221172	     -0.89167859	     -0.85904223	      1.00052711	      0.31067104	     24.17967138	     -2.24577376	     -8.76190793	     -1.28196138	     -0.39744378	     -8.77619671	     -4.82681808	    -11.23487267	      4.99922200	     -9.35229325	     -8.82218254	     13.91012899	     -5.28895145	    -17.15678485	    -11.13596965	     -4.31198215	     -2.47628620
      0.44616667	     -0.16339226	      3.58326244	     -0.86335489	     -0.85292174	      1.00000469	      0.31061820	     24.06995521	     -2.13628571	     -8.59477882	     -2.00866770	     -0.54390090	     -9.02224052	     -4.76745928	    -11.56436505	      4.85071673	     -9.26548943	     -9.34803477	     14.09886899	     -5.25390569	    -17.15831484	    -11.31577406	     -4.07462746	     -2.56546680
      0.45033333	     -0.02126474	      3.47842270	     -0.82857694	     -0.84676599	      0.99945436	      0.31057777	     23.99102268	     -2.02115532	     -8.42088409	     -2.75135035	     -0.69840301	     -9.20909431	     -4.73288795	    -11.81104706	      4.68892624	     -9.17879147	     -9.95668306	     14.27159234	     -5.27950685	    -17.15163212	    -11.45964520	     -3.82829993	     -2.61230191
      0.45450000	      0.23915569	      3.30582640	     -0.80754854	     -0.84048103	      0.99916714	      0.31062660	     23.72634952	     -1.82002299	     -8.24791318	     -3.41690737	     -1.02630706	     -9.62080934	     -4.61091711	    -12.18729076	      4.44000241	     -9.20769148	    -10.56183075	     14.36991487	     -5.12582728	    -17.11355914	    -11.71962619	     -3.50490087	     -2.74772806
      0.45866667	      0.41542357	      3.20288284	     -0.76202367	     -0.83424963	      0.99876005	      0.31060803	     23.57910121	     -1.70479854	     -8.09663956	     -4.15658072	     -1.29855873	     -9.98120665	     -4.53409769	    -12.44173793	      4.26805215	     -9.12602491	    -11.22428421	     14.44689540	     -5.08753710	    -17.07358994	    -11.88298807	     -3.25823373	     -2.79710826
      0.46283333	      0.59555546	      3.06867089	     -0.73175953	     -0.82796760	      0.99841986	      0.31069307	     23.38494347	     -1.53841445	     -7.89284093	     -4.82318584	     -1.66763191	    -10.40328089	     -4.42718047	    -12.66116179	      4.04896331	     -9.11916054	    -11.96484156	     14.46665718	     -5.03204080	    -16.99850630	    -12.06119944	     -2.98585748	     -2.88619132
      0.46700000	      0.76303920	      2.95443534	     -0.70535624	     -0.82168656	      0.99809826	      0.31078254	     23.20331693	     -1.39166862	     -7.70231994	     -5.49261623	     -2.06910464	    -10.85295017	     -4.32320461	    -12.84560893	      3.85210552	     -9.09187096	    -12.74141285	     14.45829395	     -4.99857369	    -16.90291169	    -12.21496136	     -2.73088691	     -2.93703533
      0.47116667	      0.93460015	      2.82518734	     -0.68904205	     -0.81534277	      0.99783968	      0.31091997	     22.98701946	     -1.22113013	     -7.50178675	     -6.10719389	     -2.53491877	    -11.33446234	     -4.20359262	    -13.00525069	      3.63182910	     -9.10496887	    -13.57523070	     14.40459647	     -4.95537997	    -16.76431776	    -12.37063130	     -2.46154172	     -2.98936934
      0.47533333	      1.07421506	      2.71648496	     -0.65728526	     -0.80900709	      0.99759161	      0.31101900	     22.80149610	     -1.07979218	     -7.33886545	     -6.71313672	     -3.04468251	    -11.86650443	     -4.11137847	    -13.09616772	      3.43086355	     -9.07301014	    -14.46772386	     14.29032566	     -4.94643442	    -16.62895741	    -12.48381926	     -2.20862085	     -3.02416447
      0.47950000	      1.20705423	      2.60167037	     -0.63702385	     -0.80267797	      0.99738879	      0.31119933	     22.59695519	     -0.91994678	     -7.14161797	     -7.25513617	     -3.61419536	    -12.43081521	     -4.01491572	    -13.13161857	      3.21143535	     -9.08488905	    -15.44887850	     14.13148687	     -4.93487951	    -16.45746784	    -12.59611047	     -1.95604831	     -3.06183963
      0.48366667	      1.34628421	      2.47515164	     -0.62912138	     -0.79630750	      0.99725912	      0.31142007	     22.36463237	     -0.74370406	     -6.95225865	     -7.75186035	     -4.22785138	    -13.01540775	     -3.91287643	    -13.14098314	      2.97248282	     -9.13382324	    -16.48712745	     13.92308303	     -4.91325290	    -16.24045679	    -12.71222075	     -1.69448521	     -3.07867271
      0.48783333	      1.51442097	      2.33102590	     -0.73728438	     -0.78994928	      0.99716605	      0.31196686	     22.10026900	     -0.49161773	     -6.62680483	     -8.21152101	     -4.92406148	    -13.65304773	     -3.67247187	    -13.14626582	      2.70764986	     -9.38300535	    -17.60660289	     13.72366955	     -4.75132694	    -15.64449332	    -12.86545340	     -1.44959318	     -3.05231305
